<?xml version="1.0" encoding="UTF-8"?>
<svg version="1.1" xmlns="http://www.w3.org/2000/svg" width="4096" height="4096">
<path d="M0 0 C7.75392765 5.42419251 15.65424509 10.62469122 23.5625 15.8203125 C24.69351639 16.56358292 24.69351639 16.56358292 25.84738159 17.3218689 C39.50488159 26.28539688 53.30543652 34.97343677 67.3125 43.3828125 C68.25834961 43.9514502 69.20419922 44.52008789 70.17871094 45.10595703 C146.26452945 90.72839767 226.32924129 128.91561906 746.8984375 239.55078125 C748.89726787 239.55401605 750.89609803 239.55738152 752.89492798 239.56086731 C757.05788722 239.56679263 761.22082592 239.56871444 765.38378906 239.56811523 C769.55408118 239.5680346 773.72426197 239.57488909 777.89453125 239.58862305 C813.6022801 239.70423433 849.16354933 238.72228809 884.75 235.6328125 C885.71845856 235.55044342 886.68691711 235.46807434 887.6847229 235.38320923 C942.65496914 230.67339419 996.92781295 222.09836286 1051.0703125 211.65820312 C1097.63599935 202.71384838 1144.10169074 209.71342914 1184.25 235.88671875 C1192.79170331 241.70462601 1200.64706026 248.4689857 1208.3125 255.3828125 C1209.43591797 256.39601563 1209.43591797 256.39601563 1210.58203125 257.4296875 C1237.57364294 283.15692634 1254.49249682 320.76999454 1259.3125 357.3828125 C1259.44648918 358.39925218 1259.44648918 358.39925218 1259.58318521 359.436226 C1260.69641976 369.61321014 1260.4517506 379.85012929 1260.44113445 390.07269669 C1260.44248173 392.30639471 1260.44426597 394.54009251 1260.44644669 396.77378988 C1260.45117667 402.92483312 1260.44967499 409.07586155 1260.44716892 415.22690551 C1260.44570491 421.22472777 1260.44894694 427.22254638 1260.45203945 433.22036757 C1260.45827012 445.63704889 1260.45974601 458.05372674 1260.45862198 470.47040939 C1260.45749725 483.05345903 1260.4585326 495.63650571 1260.46219444 508.2195549 C1260.4624241 509.01458647 1260.46265375 509.80961804 1260.46289036 510.62874148 C1260.46383202 513.86691936 1260.46478771 517.10509724 1260.46576155 520.34327511 C1260.4759075 554.13014779 1260.47896769 587.91701882 1260.47955366 621.70389286 C1260.47961841 625.34188821 1260.47968635 628.97988356 1260.47975707 632.61787891 C1260.47977408 633.52072388 1260.47979108 634.42356884 1260.4798086 635.35377275 C1260.48021728 655.37253196 1260.48240805 675.39129086 1260.48491292 695.4100499 C1260.48594135 703.65741816 1260.48693138 711.90478642 1260.48792917 720.15215468 C1260.48809505 721.51918212 1260.48809505 721.51918212 1260.48826428 722.91382628 C1260.49458982 775.15163816 1260.49871331 827.38944983 1260.49825573 879.62726212 C1260.49823995 881.5825141 1260.49822422 883.53776609 1260.49820852 885.49301807 C1260.49813514 894.32037616 1260.49804697 903.14773425 1260.49795464 911.97509234 C1260.49791351 915.91122194 1260.49787337 919.84735154 1260.49783332 923.78348113 C1260.49781293 925.75359037 1260.49779191 927.72369962 1260.49777026 929.69380886 C1260.49709109 991.89288022 1260.50438808 1054.09194587 1260.51831055 1116.29101562 C1260.521812 1131.94229251 1260.52528166 1147.59356941 1260.52857494 1163.24484634 C1260.52887925 1164.69070092 1260.52887925 1164.69070092 1260.52918971 1166.16576468 C1260.53541435 1195.9212181 1260.5391722 1225.67667105 1260.54043293 1255.43212509 C1260.54047288 1256.3677473 1260.54051283 1257.30336951 1260.54055399 1258.26734391 C1260.5414077 1278.81721689 1260.54166832 1299.36708984 1260.54138362 1319.91696284 C1260.54128714 1327.27258281 1260.54123509 1334.62820279 1260.54120489 1341.98382277 C1260.54119697 1343.81353622 1260.54118677 1345.64324968 1260.54117426 1347.47296314 C1260.54099858 1376.52202074 1260.54667038 1405.57107343 1260.55532808 1434.62012963 C1260.56401905 1463.93037776 1260.56613468 1493.24061914 1260.55956676 1522.55086802 C1260.55865475 1526.62205312 1260.5578114 1530.69323824 1260.55700874 1534.76442337 C1260.55676861 1535.96127574 1260.55676861 1535.96127574 1260.55652363 1537.18230694 C1260.5541915 1549.70043457 1260.55847928 1562.21855033 1260.56567993 1574.73667574 C1260.57265659 1587.11541588 1260.57222942 1599.49413889 1260.56448779 1611.87287872 C1260.56055347 1618.46592132 1260.55969664 1625.05893174 1260.56794515 1631.65197375 C1260.69312621 1738.85466768 1252.08176714 1845.22683403 1177.70458984 2149.27587891 C1176.41226835 2153.08231469 1175.13727779 2156.89442076 1173.86328125 2160.70703125 C1149.02034724 2234.51738446 1117.08307713 2307.69074854 1079.3671875 2375.8359375 C1076.5950127 2380.84641349 1073.89664179 2385.89414432 1071.20410156 2390.94775391 C1063.90276427 2404.62817555 1056.23899606 2418.05624132 1048.3125 2431.3828125 C1047.59821208 2432.58685759 1046.88402276 2433.79096117 1046.16992188 2434.99511719 C1032.73026982 2457.64126015 1018.72515189 2479.83991301 1004.125 2501.7578125 C1003.62111755 2502.51427063 1003.11723511 2503.27072876 1002.5980835 2504.05010986 C993.53253255 2517.64714262 984.43464371 2531.23343661 974.8125 2544.4453125 C974.27117432 2545.19151855 973.72984863 2545.93772461 973.17211914 2546.70654297 C971.55479053 2548.93383145 969.93420855 2551.15871174 968.3125 2553.3828125 C967.59296143 2554.37112061 967.59296143 2554.37112061 966.85888672 2555.37939453 C959.76675894 2565.11461301 952.57684192 2574.77545748 945.3125 2584.3828125 C944.88614258 2584.94709961 944.45978516 2585.51138672 944.02050781 2586.09277344 C938.4678394 2593.42440937 932.74154536 2600.59531335 926.92260742 2607.71606445 C924.13101551 2611.13399365 921.36948453 2614.56508092 918.6875 2618.0703125 C915.42488617 2622.31009532 911.96574643 2626.37714149 908.49731445 2630.44824219 C905.58144705 2633.87305556 902.70946126 2637.327392 899.875 2640.8203125 C892.27228536 2650.15029863 884.40406387 2659.25172423 876.31640625 2668.1640625 C874.49938018 2670.17589643 872.71305608 2672.20941684 870.9375 2674.2578125 C866.63323025 2679.19681327 862.18468762 2684.0035512 857.74755859 2688.82275391 C855.93066872 2690.79790299 854.11836543 2692.7772221 852.30654526 2694.75702095 C850.47289878 2696.75941942 848.63645615 2698.75924837 846.80043793 2700.75947189 C845.3922604 2702.29579389 843.98748413 2703.83515873 842.58319092 2705.37503052 C835.5135277 2713.10559542 828.2427746 2720.60105117 820.828125 2728 C819.67602287 2729.15277875 818.52406895 2730.30570564 817.37225342 2731.45877075 C814.98399635 2733.84848502 812.59398414 2736.2364252 810.20263672 2738.62304688 C807.15790069 2741.66205414 804.11772243 2744.70557532 801.07883072 2747.75042534 C798.7110234 2750.12186451 796.34081712 2752.4908945 793.96990204 2754.85922623 C792.84817165 2755.98029628 791.72716479 2757.10209084 790.60694122 2758.2246666 C785.21114884 2763.62931583 779.82030324 2768.9891717 773.98406982 2773.92532349 C772.17482781 2775.50285278 770.49281306 2777.16930044 768.8125 2778.8828125 C765.88782885 2781.85338656 762.82630439 2784.59010369 759.66796875 2787.30859375 C757.29620283 2789.39716374 754.98361633 2791.53814057 752.67407227 2793.69482422 C747.2920987 2798.71967398 741.80399901 2803.49413477 736.05859375 2808.10546875 C733.04929541 2810.60108885 730.17333194 2813.22068769 727.3125 2815.8828125 C722.73322425 2820.13814526 718.01963701 2824.15604173 713.1484375 2828.078125 C710.05662094 2830.5907583 707.02819089 2833.1693589 704 2835.7578125 C699.01510563 2840.00376611 693.92682031 2844.0917069 688.7590332 2848.11230469 C684.18118531 2851.67965562 679.67844662 2855.33189939 675.1875 2859.0078125 C669.26466036 2863.84198248 663.25359079 2868.51606308 657.10058594 2873.05566406 C654.97835858 2874.63081806 652.8678777 2876.22109073 650.7578125 2877.8125 C640.43209188 2885.59672251 630.02864022 2893.25719536 619.52148438 2900.79443359 C617.30679634 2902.38691374 615.09784316 2903.98702933 612.890625 2905.58984375 C604.24675549 2911.8633443 595.54249657 2918.04025679 586.78051758 2924.14770508 C580.43628972 2928.57704241 574.15327372 2933.08520132 567.890625 2937.62890625 C562.19439004 2941.75792312 556.45500194 2945.82203346 550.69970703 2949.86816406 C545.60299552 2953.4571327 540.54544817 2957.09721636 535.5 2960.7578125 C528.3153574 2965.96824027 521.06162513 2971.07262191 513.78076172 2976.14746094 C507.43652847 2980.57698762 501.15336587 2985.08513446 494.890625 2989.62890625 C489.19439004 2993.75792312 483.45500194 2997.82203346 477.69970703 3001.86816406 C472.60299552 3005.4571327 467.54544817 3009.09721636 462.5 3012.7578125 C455.3153574 3017.96824027 448.06162513 3023.07262191 440.78076172 3028.14746094 C434.43652847 3032.57698762 428.15336587 3037.08513446 421.890625 3041.62890625 C416.19439004 3045.75792312 410.45500194 3049.82203346 404.69970703 3053.86816406 C399.60299552 3057.4571327 394.54544817 3061.09721636 389.5 3064.7578125 C382.3153574 3069.96824027 375.06162513 3075.07262191 367.78076172 3080.14746094 C361.43652847 3084.57698762 355.15336587 3089.08513446 348.890625 3093.62890625 C343.19439004 3097.75792312 337.45500194 3101.82203346 331.69970703 3105.86816406 C326.60299552 3109.4571327 321.54544817 3113.09721636 316.5 3116.7578125 C309.3153574 3121.96824027 302.06162513 3127.07262191 294.78076172 3132.14746094 C288.43652847 3136.57698762 282.15336587 3141.08513446 275.890625 3145.62890625 C270.19439004 3149.75792312 264.45500194 3153.82203346 258.69970703 3157.86816406 C253.60299552 3161.4571327 248.54544817 3165.09721636 243.5 3168.7578125 C236.3153574 3173.96824027 229.06162513 3179.07262191 221.78076172 3184.14746094 C215.43652847 3188.57698762 209.15336587 3193.08513446 202.890625 3197.62890625 C197.19439004 3201.75792312 191.45500194 3205.82203346 185.69970703 3209.86816406 C180.60299552 3213.4571327 175.54544817 3217.09721636 170.5 3220.7578125 C163.3153574 3225.96824027 156.06162513 3231.07262191 148.78076172 3236.14746094 C142.43652847 3240.57698762 136.15336587 3245.08513446 129.890625 3249.62890625 C124.19439004 3253.75792312 118.45500194 3257.82203346 112.69970703 3261.86816406 C107.60299552 3265.4571327 102.54544817 3269.09721636 97.5 3272.7578125 C90.3153574 3277.96824027 83.06162513 3283.07262191 75.78076172 3288.14746094 C69.43652847 3292.57698762 63.15336587 3297.08513446 56.890625 3301.62890625 C51.19439004 3305.75792312 45.45500194 3309.82203346 39.69970703 3313.86816406 C34.60299086 3317.45713597 29.54566634 3321.09751219 24.5 3324.7578125 C15.60153185 3331.20393927 6.63035489 3337.5405883 -2.40527344 3343.79296875 C-4.44216824 3345.21190959 -6.46136296 3346.65208994 -8.4765625 3348.1015625 C-44.60060354 3373.68072451 -91.61298193 3383.02034652 -135.125 3375.9453125 C-163.21101256 3370.78567624 -188.83854532 3358.97315061 -211.61181641 3341.93017578 C-215.27083544 3339.20248081 -218.98409755 3336.54973808 -222.6875 3333.8828125 C-224.19665146 3332.79041552 -225.7057662 3331.69796782 -227.21484375 3330.60546875 C-234.32799991 3325.46861818 -241.50980233 3320.42885053 -248.6875 3315.3828125 C-258.15449567 3308.72736079 -267.58577044 3302.02860578 -276.95678711 3295.23852539 C-282.70537232 3291.07832422 -288.49464751 3286.97903592 -294.29956055 3282.89794922 C-299.39654329 3279.30885569 -304.45431434 3275.66858094 -309.5 3272.0078125 C-316.68677812 3266.79583602 -323.94253081 3261.68973245 -331.22583008 3256.61376953 C-337.49899404 3252.23426499 -343.70790505 3247.77258904 -349.8984375 3243.27734375 C-355.4535241 3239.2523424 -361.0595325 3235.30512206 -366.6875 3231.3828125 C-373.87962286 3226.36988969 -381.01355872 3221.28490713 -388.109375 3216.13671875 C-393.10848196 3212.51302746 -398.1365194 3208.93379077 -403.1875 3205.3828125 C-408.99144233 3201.30248142 -414.75749907 3197.17413748 -420.5 3193.0078125 C-426.85168373 3188.40146099 -433.25066619 3183.86935395 -439.6875 3179.3828125 C-446.87959372 3174.36984688 -454.01355784 3169.28490777 -461.109375 3164.13671875 C-466.10848196 3160.51302746 -471.1365194 3156.93379077 -476.1875 3153.3828125 C-481.99144233 3149.30248142 -487.75749907 3145.17413748 -493.5 3141.0078125 C-499.85168373 3136.40146099 -506.25066619 3131.86935395 -512.6875 3127.3828125 C-519.87959372 3122.36984688 -527.01355784 3117.28490777 -534.109375 3112.13671875 C-539.10848196 3108.51302746 -544.1365194 3104.93379077 -549.1875 3101.3828125 C-554.99144233 3097.30248142 -560.75749907 3093.17413748 -566.5 3089.0078125 C-572.85168373 3084.40146099 -579.25066619 3079.86935395 -585.6875 3075.3828125 C-592.87959372 3070.36984688 -600.01355784 3065.28490777 -607.109375 3060.13671875 C-612.10848196 3056.51302746 -617.1365194 3052.93379077 -622.1875 3049.3828125 C-627.99144233 3045.30248142 -633.75749907 3041.17413748 -639.5 3037.0078125 C-645.85168373 3032.40146099 -652.25066619 3027.86935395 -658.6875 3023.3828125 C-665.87959372 3018.36984688 -673.01355784 3013.28490777 -680.109375 3008.13671875 C-685.10848196 3004.51302746 -690.1365194 3000.93379077 -695.1875 2997.3828125 C-700.99144233 2993.30248142 -706.75749907 2989.17413748 -712.5 2985.0078125 C-718.85168373 2980.40146099 -725.25066619 2975.86935395 -731.6875 2971.3828125 C-738.87959372 2966.36984688 -746.01355784 2961.28490777 -753.109375 2956.13671875 C-758.10848196 2952.51302746 -763.1365194 2948.93379077 -768.1875 2945.3828125 C-773.99144233 2941.30248142 -779.75749907 2937.17413748 -785.5 2933.0078125 C-791.85168881 2928.40145731 -798.25084008 2923.8696088 -804.6875 2919.3828125 C-814.09696392 2912.81937627 -823.41975649 2906.14472857 -832.6875 2899.3828125 C-833.44353516 2898.83157715 -834.19957031 2898.2803418 -834.97851562 2897.71240234 C-847.6784314 2888.43889603 -860.20737307 2878.94941434 -872.6875 2869.3828125 C-873.92835789 2868.43355776 -875.16924017 2867.48433492 -876.41015625 2866.53515625 C-879.510211 2864.16083156 -882.60071586 2861.77437499 -885.6875 2859.3828125 C-886.24453613 2858.95194336 -886.80157227 2858.52107422 -887.37548828 2858.07714844 C-894.93760882 2852.21866352 -902.33514894 2846.20804133 -909.609375 2839.99609375 C-912.4145732 2837.60398981 -915.26213157 2835.26825399 -918.125 2832.9453125 C-924.13648202 2828.04900396 -930.00793431 2822.99673326 -935.88037109 2817.93554688 C-937.67174144 2816.39635268 -939.46945887 2814.86494131 -941.26953125 2813.3359375 C-947.98092936 2807.62834554 -954.55975684 2801.8103986 -961.02734375 2795.828125 C-963.19971246 2793.83120457 -965.39289163 2791.87452516 -967.625 2789.9453125 C-972.18369315 2785.98694108 -976.60751298 2781.88408461 -981.02905273 2777.77416992 C-983.24281634 2775.71828134 -985.46398367 2773.67139508 -987.69702148 2771.63647461 C-999.84861318 2760.49973641 -1011.43723476 2748.78582239 -1023.07861328 2737.12207031 C-1026.10186243 2734.09307919 -1029.12964391 2731.06866434 -1032.15873718 2728.04551888 C-1034.52159334 2725.68629339 -1036.88204185 2723.32467053 -1039.24179077 2720.96233749 C-1040.35727883 2719.84618945 -1041.47349039 2718.73076393 -1042.59048462 2717.6161232 C-1048.50488648 2711.71147279 -1054.25326499 2705.73821138 -1059.6875 2699.3828125 C-1060.98918755 2697.9665481 -1062.29932872 2696.55790287 -1063.625 2695.1640625 C-1064.62660156 2694.10638672 -1064.62660156 2694.10638672 -1065.6484375 2693.02734375 C-1066.32132813 2692.31964844 -1066.99421875 2691.61195313 -1067.6875 2690.8828125 C-1072.27335226 2686.05976098 -1076.77740459 2681.19309002 -1081.13769531 2676.16455078 C-1083.07774841 2673.93416208 -1085.06800303 2671.75203237 -1087.0625 2669.5703125 C-1091.01121445 2665.19995566 -1094.7337721 2660.67978171 -1098.4375 2656.1015625 C-1100.62251569 2653.46133521 -1102.87921391 2650.9155153 -1105.1875 2648.3828125 C-1109.41165948 2643.73696412 -1113.38642532 2638.92591442 -1117.33447266 2634.04492188 C-1118.87333116 2632.15453055 -1120.42584595 2630.27588543 -1121.98046875 2628.3984375 C-1128.84453399 2620.10850364 -1135.61895725 2611.76360277 -1142.22314453 2603.26513672 C-1143.83098675 2601.19837054 -1145.44461512 2599.13619596 -1147.05859375 2597.07421875 C-1163.00884178 2576.6704872 -1178.25219793 2555.79012344 -1193.13085938 2534.59423828 C-1194.73179496 2532.31988531 -1196.34188145 2530.05221588 -1197.953125 2527.78515625 C-1207.56274359 2514.22059156 -1216.67656769 2500.34975758 -1225.6875 2486.3828125 C-1226.60015625 2484.97128906 -1226.60015625 2484.97128906 -1227.53125 2483.53125 C-1246.70507272 2453.82894427 -1264.71889269 2423.39662071 -1281.6875 2392.3828125 C-1282.1633252 2391.5160791 -1282.63915039 2390.6493457 -1283.12939453 2389.75634766 C-1292.25946973 2373.10670175 -1301.0415889 2356.28718309 -1309.6875 2339.3828125 C-1310.2119873 2338.36251953 -1310.73647461 2337.34222656 -1311.27685547 2336.29101562 C-1320.00247996 2319.28839946 -1327.93202004 2301.95611913 -1335.73181152 2284.51556396 C-1336.67093968 2282.41976916 -1337.61443816 2280.32600342 -1338.55957031 2278.23291016 C-1348.94800378 2255.2158393 -1358.54764794 2231.92283441 -1367.6875 2208.3828125 C-1368.00396484 2207.56790344 -1368.32042969 2206.75299438 -1368.64648438 2205.91339111 C-1403.31069438 2116.47213535 -1428.74219243 2024.21023779 -1469.875 1732.3828125 C-1469.91202026 1731.69697083 -1469.94904053 1731.01112915 -1469.98718262 1730.30450439 C-1470.26656669 1724.99895242 -1470.47882064 1719.69154776 -1470.6875 1714.3828125 C-1470.72817631 1713.38528852 -1470.76885262 1712.38776453 -1470.81076154 1711.36001255 C-1471.86062682 1684.78215449 -1471.83567489 1658.21022206 -1471.82837028 1631.61548047 C-1471.82770687 1625.58690986 -1471.83177232 1619.55834328 -1471.8356343 1613.5297743 C-1471.84344324 1601.07473456 -1471.84659305 1588.61969769 -1471.84708023 1576.16465569 C-1471.84758492 1563.56507287 -1471.85025504 1550.96549325 -1471.85548782 1538.36591148 C-1471.85581796 1537.56642337 -1471.85614809 1536.76693525 -1471.85648823 1535.94322023 C-1471.85783841 1532.68638662 -1471.8592011 1529.42955303 -1471.86058033 1526.17271944 C-1471.87681994 1487.75703618 -1471.88325984 1449.34135357 -1471.8880282 1410.92566747 C-1471.89041663 1391.79003942 -1471.89412098 1372.65441173 -1471.8980653 1353.51878395 C-1471.910721 1292.08321278 -1471.92150818 1230.64764162 -1471.92490576 1169.21206916 C-1471.925068 1166.2806041 -1471.92523356 1163.34913904 -1471.92540014 1160.41767398 C-1471.92573392 1154.53905223 -1471.92606441 1148.66043048 -1471.9263947 1142.78180873 C-1471.92678159 1135.9000785 -1471.9271712 1129.01834827 -1471.92756577 1122.13661804 C-1471.92767819 1120.16705093 -1471.9277896 1118.19748383 -1471.92790002 1116.22791672 C-1471.93145201 1052.92627198 -1471.94654608 989.62463856 -1471.96983776 926.32299814 C-1471.98658365 880.7930359 -1472.00205556 835.26307579 -1472.00657272 789.73311043 C-1472.00666621 788.79653579 -1472.0067597 787.85996115 -1472.00685601 786.89500546 C-1472.00887514 766.33413095 -1472.01003112 745.77325648 -1472.0103846 725.21238187 C-1472.01052076 717.85553848 -1472.01072975 710.4986951 -1472.01097785 703.14185171 C-1472.01103941 701.31178641 -1472.01109773 699.48172111 -1472.0111528 697.65165581 C-1472.01207165 668.52169246 -1472.02202757 639.39174099 -1472.03661029 610.26178154 C-1472.05123675 580.92734313 -1472.0562613 551.59291928 -1472.04819075 522.25847787 C-1472.04707546 518.20088623 -1472.04606478 514.14329457 -1472.04511642 510.0857029 C-1472.04492646 509.29035693 -1472.04473649 508.49501096 -1472.04454076 507.6755636 C-1472.04181268 495.10860196 -1472.04913112 482.54166732 -1472.06068979 469.97471155 C-1472.07185863 457.60252093 -1472.07223389 445.23036828 -1472.06131961 432.85817703 C-1472.05577804 426.24689658 -1472.05521461 419.63568939 -1472.06782833 413.02441107 C-1472.07922833 406.99891585 -1472.0765762 400.9735894 -1472.06316125 394.94809982 C-1472.06074464 392.79277898 -1472.063249 390.63744486 -1472.07155773 388.48213868 C-1472.23042414 344.33605131 -1460.43874836 301.00818001 -1430.6875 267.3828125 C-1429.39005859 265.90361328 -1429.39005859 265.90361328 -1428.06640625 264.39453125 C-1397.82077534 230.37564014 -1356.04639732 210.99868192 -1310.81835938 207.78149414 C-1292.92956158 206.75469944 -1276.21967669 209.01656199 -1258.6875 212.3828125 C-1204.79901396 222.67148043 -1150.8179168 230.98108509 -1096.125 235.6328125 C-1095.23654388 235.70994476 -1094.34808777 235.78707703 -1093.43270874 235.86654663 C-1058.37837601 238.8667898 -1023.28843798 239.76593902 -988.11999893 239.70087051 C-985.00434569 239.69520679 -981.88869794 239.69240086 -978.77304077 239.68978882 C-946.32630228 239.65030563 -914.03989816 239.06364029 -881.6875 236.3828125 C-880.61842407 236.29559937 -879.54934814 236.20838623 -878.44787598 236.11853027 C-802.58771528 229.88846877 -727.53859406 217.84558601 -653.6875 199.3828125 C-652.84703125 199.17269531 -652.0065625 198.96257812 -651.140625 198.74609375 C-626.52706258 192.57422449 -602.16051674 185.79311285 -577.97680664 178.1081543 C-575.64685776 177.36993545 -573.31493673 176.6382709 -570.98242188 175.90820312 C-483.23840979 148.40785973 -397.21454607 111.82721662 -317.44384766 65.95800781 C-314.68450776 64.3811025 -311.91327097 62.82762248 -309.13671875 61.28125 C-275.04439825 42.26794003 -242.03994921 21.27633973 -209.96264648 -0.95629883 C-144.04928742 -46.56799466 -65.69366738 -46.0378372 0 0 Z M-111.76171875 342.20703125 C-112.81004883 342.81699951 -113.85837891 343.42696777 -114.93847656 344.05541992 C-116.63955566 345.05279175 -116.63955566 345.05279175 -118.375 346.0703125 C-120.75794355 347.45774622 -123.14277391 348.84192627 -125.52734375 350.2265625 C-126.1312796 350.57780685 -126.73521545 350.92905121 -127.35745239 351.29093933 C-149.67538117 364.26442735 -172.30342549 376.66252327 -195.22265625 388.5390625 C-198.51387211 390.24582959 -201.79471632 391.96810227 -205.05859375 393.7265625 C-232.61620162 408.54272059 -261.10076403 421.69057178 -289.6875 434.3828125 C-290.88729492 434.91648437 -292.08708984 435.45015625 -293.32324219 436 C-384.34507793 476.33152711 -478.82340956 508.0980224 -887.1875 579.0703125 C-888.25024139 579.13125092 -889.31298279 579.19218933 -890.40792847 579.25497437 C-921.04968219 580.98683869 -951.62985631 581.58857048 -982.3125 581.5703125 C-983.20670906 581.57019291 -984.10091812 581.57007332 -985.02222443 581.5699501 C-1025.74468234 581.56308218 -1066.28644119 580.38152806 -1106.90576172 577.34838867 C-1107.77073776 577.28436356 -1108.63571381 577.22033844 -1109.52690125 577.15437317 C-1111.11358143 577.0358435 -1112.70004738 576.91438506 -1114.28620911 576.78910828 C-1118.01616505 576.50898906 -1121.71080861 576.35413167 -1125.45222473 576.36758423 C-1126.2493176 576.36978281 -1127.04641047 576.37198139 -1127.86765766 576.3742466 C-1128.46820563 576.37707335 -1129.0687536 576.37990009 -1129.6875 576.3828125 C-1129.70905367 704.67638288 -1129.70905367 704.67638288 -1129.72984314 882.75460815 C-1129.72998259 884.28324093 -1129.73012204 885.8118737 -1129.73026149 887.34050647 C-1129.73318486 919.43447842 -1129.7359015 951.52845037 -1129.73837968 983.62242235 C-1129.73962497 999.74685804 -1129.74090994 1015.87129372 -1129.74223244 1031.99572939 C-1129.74243169 1034.42787689 -1129.74262981 1036.86002438 -1129.74282788 1039.29217187 C-1129.74588399 1076.69624634 -1129.74978544 1114.10032047 -1129.75616455 1151.50439453 C-1129.75630145 1152.30720089 -1129.75643835 1153.11000725 -1129.7565794 1153.93714107 C-1129.75879147 1166.87884573 -1129.76107519 1179.82055039 -1129.76336844 1192.76225503 C-1129.76998127 1230.08725051 -1129.7760549 1267.41224574 -1129.77863979 1304.73724174 C-1129.77869333 1305.50655561 -1129.77874686 1306.27586947 -1129.77880202 1307.06849588 C-1129.77996841 1323.96625852 -1129.78086298 1340.86402117 -1129.78150098 1357.76178384 C-1129.78176256 1364.56327455 -1129.78206319 1371.36476525 -1129.78237724 1378.16625595 C-1129.78241067 1378.91059936 -1129.7824441 1379.65494277 -1129.78247854 1380.42184204 C-1129.78357077 1404.31231113 -1129.78782743 1428.20277835 -1129.79378221 1452.09324669 C-1129.79977751 1476.20538992 -1129.80259091 1500.31753135 -1129.80112399 1524.42967535 C-1129.80021897 1539.36267809 -1129.80194078 1554.29567444 -1129.80829754 1569.22867598 C-1129.81208734 1578.79179348 -1129.81213608 1588.3549066 -1129.80933181 1597.91802442 C-1129.80784273 1603.34231595 -1129.80779929 1608.76659476 -1129.81238318 1614.19088484 C-1129.82967231 1635.9477928 -1129.69557837 1657.69110775 -1129.21611691 1679.44334221 C-1129.19488111 1680.40887098 -1129.17364532 1681.37439976 -1129.15176602 1682.36918698 C-1128.83405167 1696.49453205 -1128.37305045 1710.59543512 -1127.4375 1724.6953125 C-1127.37469849 1725.67756805 -1127.31189697 1726.65982361 -1127.24719238 1727.67184448 C-1123.85264651 1780.3179666 -1117.06375808 1832.65531258 -1106.6875 1884.3828125 C-1106.52334595 1885.20251526 -1106.35919189 1886.02221802 -1106.19006348 1886.86676025 C-1089.612628 1969.334834 -1064.8487919 2050.45445173 -1030.6875 2127.3828125 C-1029.66509923 2129.71342528 -1028.64296978 2132.0441571 -1027.62109375 2134.375 C-1011.66545954 2170.56265476 -994.15762318 2206.22826391 -974.36328125 2240.47705078 C-972.55361856 2243.61495949 -970.76055916 2246.76202145 -968.96875 2249.91015625 C-962.00266601 2262.11589286 -954.85087959 2274.15224654 -947.23828125 2285.96533203 C-945.55152749 2288.5947772 -943.88380803 2291.23567257 -942.21875 2293.87890625 C-935.73079378 2304.16587705 -929.12878521 2314.33966434 -922.14746094 2324.29882812 C-920.54330774 2326.5886361 -918.9472671 2328.8839847 -917.3515625 2331.1796875 C-906.89313323 2346.20240345 -896.35330003 2361.16437008 -885.08300781 2375.59277344 C-883.47416336 2377.65646265 -881.8736973 2379.72652232 -880.2734375 2381.796875 C-873.85626213 2390.08940113 -867.37295048 2398.30455983 -860.6875 2406.3828125 C-859.24981259 2408.15349368 -857.81231798 2409.92433142 -856.375 2411.6953125 C-851.92835786 2417.13009734 -847.36963352 2422.46288112 -842.78515625 2427.78125 C-840.76005881 2430.13064226 -838.7472527 2432.4895639 -836.74609375 2434.859375 C-830.86189549 2441.81155525 -824.80475886 2448.55658878 -818.55834961 2455.18579102 C-815.5999517 2458.32621872 -812.68355236 2461.48116808 -809.875 2464.7578125 C-806.79948966 2468.33686988 -803.47963278 2471.62925084 -800.09375 2474.9140625 C-798.21817533 2476.83835339 -796.48523872 2478.77459016 -794.74609375 2480.81640625 C-789.79329526 2486.52176418 -784.41216741 2491.80735811 -779.06323242 2497.13745117 C-777.25389067 2498.94143335 -775.44995681 2500.75069915 -773.64648438 2502.56054688 C-768.32628468 2507.88349418 -763.00621686 2513.13219913 -757.27319336 2518.01538086 C-755.13031376 2519.8633052 -753.15700524 2521.8527071 -751.1875 2523.8828125 C-747.89895472 2527.21050713 -744.52368376 2530.33617691 -740.97265625 2533.37890625 C-738.62263231 2535.43969648 -736.33699784 2537.55770752 -734.05297852 2539.69091797 C-728.62604308 2544.75858444 -723.09317342 2549.58592574 -717.30078125 2554.23828125 C-714.68902377 2556.38156206 -712.18384698 2558.6066158 -709.6875 2560.8828125 C-704.5124007 2565.58744822 -699.12608803 2569.98799389 -693.6875 2574.3828125 C-692.46807483 2575.38198907 -691.24936423 2576.38203815 -690.03125 2577.3828125 C-681.10504271 2584.70219097 -672.0241934 2591.78661131 -662.82421875 2598.7578125 C-660.69890946 2600.37413547 -658.58250559 2602.00141672 -656.46875 2603.6328125 C-642.92995249 2614.0727262 -629.06513086 2624.02963171 -615.08203125 2633.86352539 C-609.1576714 2638.0350796 -603.28515183 2642.27590816 -597.41796875 2646.52734375 C-592.36667792 2650.18276838 -587.28797648 2653.79639212 -582.1875 2657.3828125 C-575.55827288 2662.04417999 -568.98021463 2666.77225681 -562.41796875 2671.52734375 C-556.67022652 2675.68676343 -550.88246742 2679.78624491 -545.07763672 2683.86547852 C-539.95530058 2687.4712014 -534.87912055 2691.13684962 -529.8125 2694.8203125 C-523.63591239 2699.30829319 -517.38404921 2703.66423097 -511.0625 2707.9453125 C-504.4766414 2712.40728174 -498.07065223 2717.0406176 -491.74560547 2721.86352539 C-486.67077975 2725.70780363 -481.46192396 2729.3185549 -476.1875 2732.8828125 C-469.55688497 2737.36353309 -463.10873496 2742.01128725 -456.74609375 2746.86328125 C-451.6709697 2750.7074607 -446.46207601 2754.31845215 -441.1875 2757.8828125 C-434.55688497 2762.36353309 -428.10873496 2767.01128725 -421.74609375 2771.86328125 C-416.67096895 2775.70746127 -411.46207013 2779.31844167 -406.1875 2782.8828125 C-399.486526 2787.41124458 -392.96646458 2792.10951184 -386.53076172 2797.00610352 C-381.40157181 2800.89171769 -376.14676007 2804.55473603 -370.82519531 2808.1706543 C-364.96076797 2812.16556378 -359.21084469 2816.30747697 -353.46923828 2820.47631836 C-348.40292529 2824.15197459 -343.30838767 2827.78362796 -338.1875 2831.3828125 C-331.55816655 2836.04402655 -324.98021227 2840.77225852 -318.41796875 2845.52734375 C-313.36667792 2849.18276838 -308.28797648 2852.79639212 -303.1875 2856.3828125 C-296.55827288 2861.04417999 -289.98021463 2865.77225681 -283.41796875 2870.52734375 C-278.36667792 2874.18276838 -273.28797648 2877.79639212 -268.1875 2881.3828125 C-262.32262143 2885.50672526 -256.49324605 2889.67606697 -250.6875 2893.8828125 C-242.07223364 2900.12324502 -233.38998236 2906.26482606 -224.6875 2912.3828125 C-215.22050433 2919.03826421 -205.78922956 2925.73701922 -196.41821289 2932.52709961 C-191.36690109 2936.18269007 -186.28806944 2939.79632675 -181.1875 2943.3828125 C-174.55827288 2948.04417999 -167.98021463 2952.77225681 -161.41796875 2957.52734375 C-155.67450078 2961.68367031 -149.89071129 2965.77961192 -144.09082031 2969.85668945 C-139.62070305 2973.00411207 -135.17697831 2976.18545617 -130.75073242 2979.39428711 C-128.48459286 2981.03619192 -126.21331496 2982.67077884 -123.94140625 2984.3046875 C-121.21803389 2986.26546652 -118.52016515 2988.25429463 -115.83984375 2990.2734375 C-114.68514341 2991.12273254 -113.53021135 2991.97171266 -112.375 2992.8203125 C-111.38886719 2993.56152344 -110.40273437 2994.30273438 -109.38671875 2995.06640625 C-106.82330223 2996.64391047 -106.82330223 2996.64391047 -104.33984375 2995.96875 C-100.57694231 2993.7187677 -97.07794318 2991.18650059 -93.5625 2988.5703125 C-87.14437265 2983.85776135 -80.66044502 2979.27743493 -74.0625 2974.8203125 C-67.43545602 2970.32954733 -60.9770108 2965.67340486 -54.6027832 2960.83178711 C-47.79746458 2955.67413446 -40.81989294 2950.77315995 -33.82421875 2945.87841797 C-30.29450206 2943.4077776 -26.77137341 2940.92782578 -23.25 2938.4453125 C-22.55140869 2937.95289062 -21.85281738 2937.46046875 -21.13305664 2936.953125 C-15.19574985 2932.75936169 -9.30442473 2928.50357506 -3.41821289 2924.23852539 C2.32823517 2920.07987086 8.11552685 2915.98235392 13.91796875 2911.90234375 C19.0781672 2908.26826684 24.2017894 2904.58609849 29.3125 2900.8828125 C35.81438787 2896.17146174 42.35289812 2891.51671231 48.92236328 2886.90014648 C54.04469942 2883.2944236 59.12087945 2879.62877538 64.1875 2875.9453125 C70.36409319 2871.45732776 76.61605319 2867.10155137 82.9375 2862.8203125 C89.56398059 2858.32867249 96.02294377 2853.67343936 102.3972168 2848.83178711 C109.20253542 2843.67413446 116.18010706 2838.77315995 123.17578125 2833.87841797 C126.70549794 2831.4077776 130.22862659 2828.92782578 133.75 2826.4453125 C134.44859131 2825.95289062 135.14718262 2825.46046875 135.86694336 2824.953125 C141.80425015 2820.75936169 147.69557527 2816.50357506 153.58178711 2812.23852539 C159.32823517 2808.07987086 165.11552685 2803.98235392 170.91796875 2799.90234375 C176.0781687 2796.26826578 181.20171666 2792.58599978 186.3125 2788.8828125 C195.62225489 2782.13933009 205.01302336 2775.51446313 214.41699219 2768.90332031 C223.18128716 2762.7394652 231.90525544 2756.52539369 240.58178711 2750.23852539 C246.32823517 2746.07987086 252.11552685 2741.98235392 257.91796875 2737.90234375 C263.0781672 2734.26826684 268.2017894 2730.58609849 273.3125 2726.8828125 C279.81308483 2722.17240593 286.3511388 2717.51983642 292.91796875 2712.90234375 C298.0781672 2709.26826684 303.2017894 2705.58609849 308.3125 2701.8828125 C314.81308483 2697.17240593 321.3511388 2692.51983642 327.91796875 2687.90234375 C333.0781687 2684.26826578 338.20171666 2680.58599978 343.3125 2676.8828125 C352.62225489 2670.13933009 362.01302336 2663.51446313 371.41699219 2656.90332031 C380.18211381 2650.73888383 388.90772309 2644.52531201 397.58398438 2638.23632812 C402.61064699 2634.59752749 407.67024258 2631.00949347 412.75 2627.4453125 C427.55537891 2617.03111155 442.014509 2606.1877106 456.24609375 2595.00390625 C458.19071476 2593.47835291 460.14100454 2591.96044482 462.09375 2590.4453125 C468.41725891 2585.52788989 474.61505021 2580.49617304 480.70483398 2575.29174805 C483.81886879 2572.63296204 486.97013464 2570.04029316 490.1875 2567.5078125 C500.40648711 2559.39566202 510.10487106 2550.64858411 519.68359375 2541.796875 C521.86736315 2539.79157115 524.07213925 2537.8241518 526.3125 2535.8828125 C534.13621876 2529.08382197 541.77193675 2522.09542659 548.984375 2514.6484375 C550.87454177 2512.80901346 552.78995503 2511.1052597 554.79296875 2509.39453125 C560.17686286 2504.71848478 565.1828849 2499.66212391 570.21264648 2494.61303711 C571.8717732 2492.94854973 573.53618051 2491.28947803 575.20117188 2489.63085938 C580.27282156 2484.56205047 585.25065472 2479.45994447 589.90991211 2474.00366211 C591.77232301 2471.85143479 593.77043745 2469.86391796 595.8125 2467.8828125 C599.14019463 2464.59426722 602.26586441 2461.21899626 605.30859375 2457.66796875 C607.36930781 2455.31803166 609.48724187 2453.03248124 611.62036133 2450.74853516 C616.66631836 2445.34490397 621.46730115 2439.83551053 626.09765625 2434.06640625 C628.43826787 2431.23042709 630.8834021 2428.52428405 633.375 2425.8203125 C637.0990257 2421.76551576 640.60212511 2417.61861277 644 2413.2890625 C646.37650035 2410.30237963 648.80897443 2407.36890974 651.2512207 2404.43603516 C657.50317105 2396.917515 663.50333654 2389.26489499 669.3203125 2381.40625 C671.87911962 2377.95008929 674.4887089 2374.53599731 677.11425781 2371.13037109 C694.93603817 2348.0046161 711.6070257 2323.99007297 727.3125 2299.3828125 C727.80137695 2298.6211377 728.29025391 2297.85946289 728.79394531 2297.07470703 C763.74195531 2242.60104102 795.12909555 2185.05128924 820.3125 2125.3828125 C820.57313232 2124.7655127 820.83376465 2124.14821289 821.10229492 2123.51220703 C853.74598081 2046.09810664 878.95968427 1966.34021029 914.5625 1744.5078125 C914.64558411 1743.44429565 914.72866821 1742.38077881 914.81427002 1741.28503418 C915.05281126 1738.19556837 915.28573348 1735.10574573 915.515625 1732.015625 C915.58206207 1731.13667572 915.64849915 1730.25772644 915.71694946 1729.35214233 C916.94107173 1712.43432239 917.52476098 1695.49728211 917.86748409 1678.54150295 C917.89895843 1677.0309796 917.89895843 1677.0309796 917.9310686 1675.48994062 C918.37856891 1653.66175639 918.45324916 1631.83880793 918.43476619 1610.00677535 C918.43124446 1604.46946468 918.43371892 1598.93215558 918.43534368 1593.39484447 C918.4373916 1583.74550615 918.4358187 1574.09617406 918.43170547 1564.44683647 C918.42560675 1550.09919293 918.42537383 1535.75155257 918.42624746 1521.40390806 C918.42764577 1497.25510119 918.42425639 1473.10629698 918.41823006 1448.95749092 C918.41228568 1425.07951405 918.40845061 1401.20153832 918.40737724 1377.32356071 C918.40734283 1376.57902505 918.40730842 1375.83448939 918.40727296 1375.06739204 C918.40695972 1368.26612405 918.40667203 1361.46485607 918.40641499 1354.66358809 C918.40577601 1337.76457851 918.40481694 1320.86556896 918.40363979 1303.96655941 C918.40358648 1303.19744341 918.40353316 1302.42832741 918.40347823 1301.63590487 C918.40086355 1264.32164123 918.39455884 1227.00737834 918.38793945 1189.69311523 C918.38564757 1176.76184083 918.3833721 1163.83056642 918.38116455 1150.89929199 C918.3810276 1150.09717421 918.38089065 1149.29505643 918.38074955 1148.46863206 C918.37439265 1111.10399434 918.37067576 1073.7393565 918.36762976 1036.37471838 C918.36743169 1033.94572748 918.3672325 1031.51673657 918.36703308 1029.08774567 C918.36571317 1012.98922609 918.36443854 996.8907065 918.36319422 980.7921869 C918.36071842 948.76654637 918.35797677 916.74090586 918.35505217 884.71526536 C918.35491293 883.19049569 918.35477387 881.66572602 918.35463501 880.14095635 C918.34725464 799.12444904 918.33540012 718.1079425 918.3125 576.3828125 C914.78703886 576.54116144 911.26161211 576.70026409 907.7361908 576.85949707 C906.74369497 576.90406666 905.75119914 576.94863625 904.72862768 576.99455643 C897.77501746 577.30913123 890.82640368 577.67178225 883.87890625 578.1015625 C881.72201451 578.23062437 879.56511315 578.35952543 877.40820312 578.48828125 C874.15849353 578.68388023 870.90887568 578.88072919 867.65942383 579.08056641 C836.28587276 581.00251534 804.98477393 581.58903431 773.5625 581.5703125 C772.66867741 581.57019291 771.77485481 581.57007332 770.85394669 581.5699501 C740.63042308 581.5648519 710.49440449 581.09353842 680.3125 579.3828125 C678.43457494 579.27986341 676.55664524 579.17699896 674.67871094 579.07421875 C564.89580208 572.96382516 455.8362157 555.62594701 318.3125 520.3828125 C317.38163574 520.12602722 316.45077148 519.86924194 315.49169922 519.60467529 C250.86317505 501.71552874 187.31985687 479.8964752 125.3125 454.3828125 C124.5091925 454.0528125 123.70588501 453.7228125 122.87823486 453.3828125 C99.87706675 443.92678313 77.13167227 433.98294877 54.60229492 423.45251465 C52.25474463 422.35583146 49.90576672 421.26224853 47.55664062 420.16894531 C15.1673742 405.07617052 -16.9350099 389.25367137 -48.13232422 371.81054688 C-50.92864447 370.2480702 -53.73177837 368.69821306 -56.53515625 367.1484375 C-65.63133091 362.10236864 -74.68596738 356.99494371 -83.6484375 351.71484375 C-84.64746346 351.1265554 -84.64746346 351.1265554 -85.66667175 350.52638245 C-88.93932893 348.59718918 -92.20777205 346.66125244 -95.47094727 344.71606445 C-96.65638049 344.01378016 -97.84184441 343.31154768 -99.02734375 342.609375 C-100.59536743 341.67472412 -100.59536743 341.67472412 -102.19506836 340.72119141 C-106.37768966 338.47521923 -107.84835133 339.91676619 -111.76171875 342.20703125 Z " fill="#3B6D48" transform="translate(2153.6875,375.6171875)"/>
<path d="M0 0 C32.52096017 28.97079383 55.20107422 67.47716812 59.76635742 111.35131836 C59.93071289 112.90592773 59.93071289 112.90592773 60.09838867 114.49194336 C63.71275888 154.3945904 54.24369518 198.00791743 29.76635742 230.35131836 C29.18797119 231.13514893 29.18797119 231.13514893 28.59790039 231.93481445 C18.5691918 245.48914848 6.79212017 257.56932107 -5.23364258 269.35131836 C-5.76473633 269.92237305 -6.29583008 270.49342773 -6.84301758 271.08178711 C-8.23364258 272.35131836 -8.23364258 272.35131836 -10.23364258 272.35131836 C-10.56364258 273.34131836 -10.89364258 274.33131836 -11.23364258 275.35131836 C-12.72620869 276.8238802 -12.72620869 276.8238802 -14.66487122 278.41365051 C-19.82595126 282.79743244 -24.56158369 287.55444354 -29.33398438 292.35400391 C-30.32188859 293.34383165 -31.31002394 294.33342874 -32.29837036 295.32281494 C-34.41084138 297.43842519 -36.52175429 299.55557311 -38.63144493 301.67395592 C-41.97016465 305.02629116 -45.31277882 308.37472539 -48.65596008 311.72261047 C-55.74733468 318.82504167 -62.83445319 325.9317128 -69.92114258 333.03881836 C-77.58404879 340.72377731 -85.24769925 348.40798549 -92.91623431 356.08732826 C-96.23717611 359.41324031 -99.55566745 362.74157211 -102.87227857 366.0718025 C-104.93591142 368.14290904 -107.00162691 370.21192877 -109.06790543 372.28039551 C-110.47725058 373.69249613 -111.88407558 375.10711058 -113.29081726 376.52180481 C-114.55852966 377.78962296 -114.55852966 377.78962296 -115.85185242 379.08305359 C-116.58166163 379.81508342 -117.31147085 380.54711325 -118.0633955 381.3013258 C-120.23364258 383.35131836 -120.23364258 383.35131836 -122.69500446 385.30558491 C-125.41102954 387.49426368 -127.79921954 389.85493408 -130.23364258 392.35131836 C-130.97320442 393.091802 -131.71276627 393.83228563 -132.47473907 394.59520817 C-133.23794212 395.35971004 -134.00114517 396.1242119 -134.78747559 396.91188049 C-135.67060928 397.79645935 -136.55374298 398.68103821 -137.46363831 399.59242249 C-137.93328066 400.06284029 -138.40292301 400.53325809 -138.88679695 401.01793098 C-149.74075791 411.88964721 -160.59764813 422.75843444 -171.45613861 433.62562656 C-177.72887179 439.9035226 -184.00065692 446.18236045 -190.27026367 452.46337891 C-195.75099591 457.9540816 -201.23348683 463.44302108 -206.71809149 468.92985576 C-209.61743547 471.8305015 -212.51589742 474.73201627 -215.4122467 477.63565254 C-218.13513789 480.36534061 -220.86037707 483.09266233 -223.58741951 485.81820297 C-224.58598861 486.81704662 -225.58370449 487.8167441 -226.5804882 488.81736946 C-227.94460206 490.18648165 -229.31213023 491.55218942 -230.67980957 492.91773987 C-231.44301262 493.68186471 -232.20621567 494.44598955 -232.99254608 495.23326969 C-235.23364258 497.35131836 -235.23364258 497.35131836 -237.70575714 499.31591702 C-240.4186922 501.50031651 -242.80278857 503.85856236 -245.23364258 506.35131836 C-245.97043904 507.08903662 -246.70723551 507.82675488 -247.46635914 508.58682823 C-248.22566573 509.34743364 -248.98497232 510.10803905 -249.76728821 510.89169312 C-250.64608643 511.77193649 -251.52488464 512.65217987 -252.43031311 513.55909729 C-252.89762911 514.02718874 -253.36494511 514.49528019 -253.8464222 514.97755623 C-264.66201698 525.81093078 -275.4805606 536.64135675 -286.3007021 547.47019005 C-292.54981136 553.72445546 -298.79797554 559.97965967 -305.04394531 566.23706055 C-310.50601822 571.70912449 -315.96986794 577.17940706 -321.435826 582.64759028 C-324.32353019 585.53659274 -327.21036175 588.42645472 -330.09505653 591.31846237 C-332.81055375 594.04078916 -335.52843489 596.76071362 -338.24809647 599.47887993 C-339.2405685 600.47162506 -340.23219645 601.46521494 -341.22287178 602.45975304 C-345.45605295 606.70861769 -349.67291249 610.93322683 -354.22514343 614.84182739 C-359.35426099 619.24840578 -364.07155079 624.0654886 -368.8371582 628.85717773 C-369.87930755 629.90125035 -370.92168784 630.9450925 -371.96427917 631.98872375 C-374.19460581 634.22219183 -376.42337413 636.45719889 -378.65092468 638.69343567 C-382.17949559 642.23562333 -385.711962 645.77390929 -389.24499512 649.31164551 C-396.74418874 656.82190048 -404.23913909 664.33638352 -411.73364258 671.85131836 C-419.82688901 679.96662843 -427.92087737 688.08119023 -436.0197711 696.19086504 C-439.52554147 699.7015917 -443.02886524 703.21473557 -446.53028107 706.72980499 C-448.71532063 708.9223487 -450.90247035 711.11277833 -453.09017372 713.3026638 C-454.09717522 714.31152371 -455.10331895 715.32124072 -456.10849571 716.33191872 C-460.99881407 721.24813724 -465.92924197 726.01657367 -471.18979645 730.53331757 C-475.49294587 734.36096826 -479.50231336 738.4994461 -483.56176758 742.58178711 C-484.57436056 743.59630353 -485.58718461 744.61058937 -486.60021973 745.62466431 C-488.76670416 747.7942893 -490.93163024 749.96545275 -493.09533691 752.1378479 C-496.52309066 755.57922304 -499.95474397 759.01669222 -503.38696289 762.45361328 C-510.67216833 769.74987818 -517.95312939 777.05037179 -525.23364258 784.35131836 C-533.09592068 792.23566261 -540.95894211 800.119257 -548.82686996 807.99796391 C-552.23228656 811.40833541 -555.63525649 814.8211233 -559.03631592 818.23583984 C-561.15907745 820.36610788 -563.28395121 822.49425966 -565.40937805 824.62186813 C-566.38735392 825.60170168 -567.36447238 826.58239196 -568.34062195 827.56404495 C-573.79764837 833.05084303 -579.34210253 838.33390718 -585.23364258 843.35131836 C-586.17208008 844.18276367 -587.11051758 845.01420898 -588.07739258 845.87084961 C-624.10630526 876.97227865 -670.58550445 888.36779503 -717.28588867 885.14038086 C-761.96705859 880.88886568 -798.69877905 857.24960387 -829.61146545 826.24092102 C-830.78531334 825.07082217 -831.95958929 823.90115263 -833.13424867 822.73186845 C-836.32001729 819.55818999 -839.49966233 816.37844111 -842.67820275 813.19752562 C-846.12321762 809.75209901 -849.57396834 806.3124245 -853.02391052 802.87193298 C-859.76584803 796.14652785 -866.50229738 789.41565208 -873.23653276 782.68253551 C-878.71473754 777.20528461 -884.19452609 771.72962321 -889.67541313 766.25505638 C-905.24727618 750.70078213 -920.81496467 735.14234706 -936.37728424 719.57852433 C-937.21425993 718.74146872 -938.05123562 717.90441312 -938.91357422 717.04199219 C-939.75158176 716.20390289 -940.5895893 715.36581359 -941.452991 714.50232764 C-955.03427511 700.92023061 -968.62551069 687.34814049 -982.22128922 673.78055391 C-996.21328999 659.81733599 -1010.19776313 645.84661744 -1024.17451757 631.86813802 C-1032.0087745 624.03321921 -1039.8460353 616.20136247 -1047.69142342 608.37758827 C-1054.36978304 601.71751132 -1061.04106817 595.05044446 -1067.70353014 588.3744627 C-1071.09660874 584.97489103 -1074.49270935 581.57850331 -1077.89776993 578.19092941 C-1115.24577881 541.02259063 -1142.90942799 499.57016425 -1143.47509766 444.90917969 C-1143.50472439 431.48996363 -1143.08277234 418.51171793 -1140.23364258 405.35131836 C-1140.06735352 404.57320801 -1139.90106445 403.79509766 -1139.72973633 402.9934082 C-1130.12775352 359.65112468 -1103.66733906 320.64167308 -1066.36181641 296.42871094 C-1025.95347835 270.91309857 -979.03688577 262.49762327 -932.3347168 272.62133789 C-892.45407597 281.80325458 -863.71406721 304.69332011 -835.40942383 333.04272461 C-833.89363416 334.55783916 -832.3776962 336.07280536 -830.86161804 337.58763123 C-827.70071584 340.74706716 -824.54160879 343.90828403 -821.38378906 347.07080078 C-817.35259864 351.10769764 -813.3169212 355.14007429 -809.27988911 359.17112827 C-806.15440923 362.2929819 -803.03133064 365.41722902 -799.90895653 368.54218864 C-798.42225546 370.02955276 -796.93482237 371.51618559 -795.44661903 373.00204659 C-793.36317672 375.08292722 -791.28300382 377.16702459 -789.20361328 379.25195312 C-788.5992897 379.85425247 -787.99496613 380.45655182 -787.37232971 381.07710266 C-784.3977876 384.06621311 -781.54050136 387.11041676 -778.78372192 390.30223083 C-775.18329565 394.4624716 -771.36177377 398.35716411 -767.46240234 402.23608398 C-766.34896202 403.34974335 -766.34896202 403.34974335 -765.21302795 404.48590088 C-762.78606723 406.91217113 -760.35559576 409.3348911 -757.92504883 411.75756836 C-756.2308958 413.44985413 -754.53696505 415.14236243 -752.84324646 416.83508301 C-748.40513659 421.26939194 -743.96403079 425.70068833 -739.52227783 430.13134766 C-734.98218279 434.66117628 -730.44495041 439.19387026 -725.9074707 443.72631836 C-717.01898188 452.60411263 -708.12741993 461.47882231 -699.23364258 470.35131836 C-695.92250048 468.90571744 -693.73966359 467.10659451 -691.19316101 464.55807495 C-690.39843384 463.76754227 -689.60370667 462.97700958 -688.78489685 462.16252136 C-687.92195511 461.29396011 -687.05901337 460.42539886 -686.16992188 459.53051758 C-684.79602798 458.15947121 -684.79602798 458.15947121 -683.39437866 456.76072693 C-680.88342908 454.25462246 -678.37877201 451.74231453 -675.87532401 449.22871923 C-673.24869266 446.59328918 -670.61677524 443.96314785 -667.98554993 441.33230591 C-663.56295823 436.90877758 -659.14425512 432.48139495 -654.72802734 428.05151367 C-649.63724826 422.94505282 -644.54130602 417.84379278 -639.4423129 412.74553478 C-633.99988881 407.30378915 -628.56129252 401.85823007 -623.12379098 396.41156626 C-621.56474944 394.85040334 -620.00500762 393.28994305 -618.4451046 391.72964096 C-615.52224471 388.80557909 -612.60368327 385.87726214 -609.68554688 382.94848633 C-608.82867783 382.09207047 -607.97180878 381.2356546 -607.088974 380.35328674 C-602.78758416 376.02905619 -598.62928654 371.63874139 -594.65842915 367.00805855 C-592.94002853 365.00990429 -591.20475621 363.10341937 -589.23364258 361.35131836 C-588.57364258 361.35131836 -587.91364258 361.35131836 -587.23364258 361.35131836 C-586.99013052 360.78282441 -586.74661846 360.21433046 -586.49572724 359.62860942 C-584.99758106 356.92537167 -583.22876642 355.09942643 -581.04028797 352.91466141 C-580.15584029 352.02684833 -579.27139261 351.13903525 -578.36014348 350.22431874 C-577.37265533 349.24322763 -576.38507593 348.26222836 -575.39741516 347.28131104 C-574.35254979 346.23628964 -573.30812548 345.19082709 -572.2641055 344.14496112 C-569.39061588 341.2689357 -566.51092204 338.39919282 -563.63020527 335.53040886 C-560.52556562 332.4364475 -557.42670456 329.3367082 -554.3271637 326.23764038 C-548.95343012 320.86627101 -543.57609819 315.49852586 -538.19637489 310.13315582 C-530.41004012 302.36749606 -522.62970538 294.59584736 -514.85092201 286.8226243 C-502.21991056 274.20087397 -489.5848056 261.5832301 -476.94677734 248.96850586 C-476.19012837 248.2132502 -475.43347939 247.45799453 -474.65390166 246.67985234 C-473.89632617 245.92367238 -473.13875069 245.16749243 -472.35821837 244.38839793 C-461.62857173 233.67849996 -450.89988056 222.96764609 -440.17236328 212.25561523 C-439.04104287 211.1259311 -439.04104287 211.1259311 -437.8868675 209.97342506 C-425.30463772 197.40922816 -412.72444433 184.84299355 -400.14529198 172.27571559 C-392.38717843 164.52518745 -384.62699438 156.77674279 -376.86410888 149.03099415 C-371.54182532 143.72029413 -366.22124847 138.40788846 -360.90199886 133.09414962 C-357.83414177 130.02961839 -354.76544721 126.96593778 -351.69451904 123.9044838 C-348.88004387 121.09867579 -346.06791471 118.29053806 -343.25758149 115.48058161 C-342.24360409 114.46756538 -341.22877822 113.45539751 -340.21299282 112.44419423 C-335.1745176 107.42756612 -330.24414441 102.3794782 -325.62259644 96.97357821 C-323.91910867 94.98395142 -322.19254941 93.09256888 -320.23364258 91.35131836 C-319.57364258 91.35131836 -318.91364258 91.35131836 -318.23364258 91.35131836 C-317.96700113 90.76033135 -317.70035969 90.16934435 -317.4256382 89.56044865 C-316.20900411 87.30565578 -314.95970938 85.81848288 -313.16171265 84.00523376 C-312.53104889 83.36459488 -311.90038513 82.72395599 -311.25061035 82.06390381 C-310.21426453 81.02656097 -310.21426453 81.02656097 -309.15698242 79.96826172 C-308.42826935 79.23122513 -307.69955627 78.49418854 -306.94876099 77.7348175 C-304.53616318 75.29810957 -302.11595947 72.86914206 -299.69458008 70.44116211 C-298.0125878 68.75020374 -296.33067361 67.0591677 -294.64883423 65.36805725 C-291.12012293 61.82285023 -287.58703514 58.28206706 -284.05151367 54.74365234 C-279.52700647 50.21376342 -275.01886706 45.66795327 -270.51457787 41.11797237 C-267.04514026 37.6187583 -263.56446967 34.13088461 -260.080616 30.64602852 C-258.41399573 28.97520659 -256.75149039 27.30026938 -255.09324265 25.62113762 C-252.76941565 23.27038968 -250.43022641 20.93603744 -248.08666992 18.60498047 C-247.06854218 17.56460129 -247.06854218 17.56460129 -246.02984619 16.50320435 C-241.65773409 12.19701083 -238.07133426 10.22028913 -232.23364258 8.35131836 C-229.59503777 6.3385685 -229.59503777 6.3385685 -227.29614258 3.91381836 C-165.86431174 -54.36984386 -63.47457553 -54.85494266 0 0 Z " fill="#3B6D48" transform="translate(2550.233642578125,1623.648681640625)"/>
</svg>
